<svg width="120" height="120" viewBox="0 0 120 120" fill="none" xmlns="http://www.w3.org/2000/svg">
<circle cx="60" cy="60" r="58.5" stroke="black" stroke-opacity="0.1" stroke-width="3"/>
<path d="M59.9998 55.1078C60.369 55.1078 60.7383 54.8309 60.7383 54.3693C60.7383 53.9078 60.4614 53.6309 59.9998 53.6309C56.5844 53.6309 53.7229 56.4001 53.7229 59.9078C53.7229 63.4155 56.4921 66.1847 59.9998 66.1847C63.5075 66.1847 66.2767 63.4155 66.2767 59.9078C66.2767 59.5386 65.9998 59.1693 65.5383 59.1693C65.0767 59.1693 64.7998 59.4462 64.7998 59.9078C64.7998 62.5847 62.5844 64.8001 59.9075 64.8001C57.2306 64.8001 55.0152 62.5847 55.0152 59.9078C55.0152 57.2309 57.3229 55.1078 59.9998 55.1078Z" fill="black" fill-opacity="0.8"/>
<path d="M79.6615 44.5848C79.3845 44.7694 79.2922 45.2309 79.4768 45.5079C82.6153 49.6617 84.1845 54.6463 84.1845 59.9079C84.1845 73.3848 73.3845 84.1848 59.9999 84.1848C46.6153 84.1848 35.723 73.3848 35.723 60.0002C35.723 46.6155 46.6153 35.7232 59.9999 35.7232C65.2615 35.7232 70.2461 37.3848 74.3999 40.4309C74.6768 40.6155 75.1384 40.6155 75.323 40.2463C75.5076 39.9694 75.5076 39.5079 75.1384 39.3232C70.7076 36.0002 65.4461 34.3386 59.9076 34.3386C45.8768 34.3386 34.3384 45.8771 34.3384 60.0002C34.3384 74.1232 45.7845 85.6617 59.9999 85.6617C74.2153 85.6617 85.6615 74.2155 85.6615 60.0002C85.6615 54.4617 83.9076 49.2002 80.6768 44.7694C80.3999 44.4925 79.9384 44.4002 79.6615 44.5848Z" fill="black" fill-opacity="0.8"/>
<path d="M70.8 44.9539C70.9846 44.677 70.8923 44.2154 70.6154 44.0308C67.4769 41.9077 63.8769 40.8923 60.0923 40.8923C49.5693 40.8923 40.8923 49.477 40.8923 60.0923C40.8923 70.7077 49.4769 79.2923 60.0923 79.2923C70.7077 79.2923 79.2923 70.7077 79.2923 60.0923C79.2923 56.3077 78.1846 52.7077 76.1539 49.5693C75.9693 49.2923 75.5077 49.2 75.2308 49.3846C74.9539 49.5693 74.8616 50.0308 75.0462 50.3077C76.9846 53.1693 78 56.5846 78 60.0923C78 69.877 70.0616 77.9077 60.1846 77.9077C50.3077 77.9077 42.3693 69.9693 42.3693 60.0923C42.3693 50.2154 50.3077 42.2769 60.1846 42.2769C63.6923 42.2769 67.1077 43.2923 69.9693 45.2308C70.1539 45.4154 70.5231 45.3231 70.8 44.9539Z" fill="black" fill-opacity="0.8"/>
<path d="M66.0922 49.6617C66.2769 49.2925 66.0922 48.9232 65.8153 48.7386C64.0615 47.8155 62.0307 47.354 59.9999 47.354C52.9845 47.354 47.2615 53.0771 47.2615 60.0925C47.2615 67.1078 52.9845 72.8309 59.9999 72.8309C67.0153 72.8309 72.7384 67.1078 72.7384 60.0925C72.7384 58.0617 72.2768 56.1232 71.3538 54.2771C71.1692 53.9078 70.7999 53.8155 70.4307 54.0002C70.0615 54.1848 69.9692 54.554 70.1538 54.9232C70.9845 56.4925 71.3538 58.2463 71.3538 60.0925C71.3538 66.3694 66.2769 71.4463 59.9999 71.4463C53.723 71.4463 48.6461 66.3694 48.6461 60.0925C48.6461 53.8155 53.723 48.7386 59.9999 48.7386C61.8461 48.7386 63.5076 49.2002 65.1692 49.9386C65.4461 50.1232 65.9076 49.9386 66.0922 49.6617Z" fill="black" fill-opacity="0.8"/>
<path d="M86.7695 38.1232H82.8926L86.308 34.6155C86.5849 34.3386 86.5849 33.877 86.308 33.6001C86.0311 33.3232 85.6618 33.4155 85.3849 33.6924L81.9695 37.1078V33.2309C81.9695 32.8617 81.6926 32.4924 81.2311 32.4924C80.7695 32.4924 80.4926 32.7694 80.4926 33.2309V38.4924L59.5387 59.5386C59.2618 59.8155 59.2618 60.277 59.5387 60.554C59.6311 60.6463 59.8157 60.7386 60.0003 60.7386C60.1849 60.7386 60.3695 60.6463 60.4618 60.554L81.508 39.5078H86.7695C87.1387 39.5078 87.508 39.2309 87.508 38.7694C87.508 38.3078 87.1387 38.1232 86.7695 38.1232Z" fill="black" fill-opacity="0.8"/>
</svg>
