<svg width="120" height="120" viewBox="0 0 120 120" fill="none" xmlns="http://www.w3.org/2000/svg">
<circle cx="60" cy="60" r="58.5" stroke="black" stroke-opacity="0.1" stroke-width="3"/>
<path d="M75.2925 83.8208H39.6792V48.4434L51.9434 36.2579H74.6635V49.7799C74.6635 50.0943 74.8994 50.4088 75.2925 50.4088C75.6855 50.4088 75.9214 50.173 75.9214 49.7799V35.6289C75.9214 35.3145 75.6855 35 75.2925 35H51.7075C51.5503 35 51.3931 35.0786 51.3145 35.1572L38.6572 47.8145C38.5786 47.8931 38.5 48.0503 38.5 48.2075V84.3711C38.5 84.6855 38.7358 85 39.1289 85H75.2925C75.6069 85 75.9214 84.7642 75.9214 84.3711C75.9214 83.978 75.6069 83.8208 75.2925 83.8208Z" fill="black" fill-opacity="0.8"/>
<path d="M52.2577 48.2074V38.7735C52.2577 38.459 52.0219 38.1445 51.6288 38.1445C51.2357 38.1445 50.9999 38.3804 50.9999 38.7735V47.6571H42.2735C41.959 47.6571 41.6445 47.893 41.6445 48.286C41.6445 48.6791 41.8804 48.915 42.2735 48.915H51.7074C52.0219 48.8364 52.2577 48.5219 52.2577 48.2074Z" fill="black" fill-opacity="0.8"/>
<path d="M69.7901 53.1604H43.8467C43.5322 53.1604 43.2178 53.3962 43.2178 53.7893C43.2178 54.1824 43.4536 54.4183 43.8467 54.4183H69.7901C70.1046 54.4183 70.419 54.1824 70.419 53.7893C70.419 53.3962 70.1046 53.1604 69.7901 53.1604Z" fill="black" fill-opacity="0.8"/>
<path d="M70.3399 58.4278C70.3399 58.1133 70.1041 57.7988 69.711 57.7988H43.7676C43.4531 57.7988 43.1387 58.0347 43.1387 58.4278C43.1387 58.8208 43.3745 59.0567 43.7676 59.0567H69.711C70.1041 59.0567 70.3399 58.7422 70.3399 58.4278Z" fill="black" fill-opacity="0.8"/>
<path d="M43.8467 62.5942C43.5322 62.5942 43.2178 62.8301 43.2178 63.2232C43.2178 63.6163 43.4536 63.8521 43.8467 63.8521H65.0731C65.3876 63.8521 65.702 63.6163 65.702 63.2232C65.702 62.8301 65.4662 62.5942 65.0731 62.5942H43.8467Z" fill="black" fill-opacity="0.8"/>
<path d="M77.4936 60.2358C72.9338 60.2358 68.9244 63.066 67.3521 67.3113H45.4967C45.3395 67.3113 45.1823 67.3899 45.1036 67.4685L41.959 70.6132C41.8804 70.6918 41.8018 70.849 41.8018 71.0063C41.8018 71.1635 41.8018 71.2421 41.8804 71.3994L45.025 74.544C45.1036 74.6226 45.2609 74.7013 45.4181 74.7013H48.6414C48.7986 74.7013 48.9558 74.6226 49.0345 74.544L50.8426 72.7358L52.808 74.544C52.8867 74.6226 53.0439 74.7013 53.2011 74.7013H53.9873C54.1445 74.7013 54.3018 74.6226 54.3804 74.544L56.1885 72.7358L57.9967 74.544C58.0753 74.6226 58.2326 74.7013 58.3898 74.7013H59.176C59.3332 74.7013 59.4904 74.6226 59.569 74.544L61.3772 72.7358L63.1854 74.544C63.264 74.6226 63.4213 74.7013 63.5785 74.7013H67.1162C68.6885 78.9465 72.698 81.7767 77.2577 81.7767C83.2326 81.7767 88.1068 76.9025 88.1068 70.9277C88.1068 64.9528 83.4684 60.2358 77.4936 60.2358ZM77.4936 80.6761C73.2483 80.6761 69.6319 78.0031 68.2955 73.9937C68.2168 73.7579 67.981 73.6006 67.7451 73.6006H64.0502L62.0062 71.5566C61.9275 71.478 61.7703 71.3994 61.6131 71.3994C61.4558 71.3994 61.2986 71.478 61.22 71.5566L59.0974 73.522H58.7829L56.7389 71.478C56.503 71.2421 56.1099 71.2421 55.8741 71.478L53.8301 73.522H53.5156L51.4716 71.478C51.2357 71.2421 50.8426 71.2421 50.6068 71.478L48.5628 73.522H45.7326L43.1382 70.9277L45.7326 68.3333H67.8238C68.0596 68.3333 68.2955 68.1761 68.3741 67.9402C69.7106 64.0094 73.3269 61.3365 77.4936 61.3365C82.8395 61.3365 87.1634 65.6604 87.1634 71.0063C87.1634 76.3522 82.8395 80.6761 77.4936 80.6761Z" fill="black" fill-opacity="0.8"/>
<path d="M81.4242 66.9182C79.1444 66.9182 77.3362 68.7264 77.3362 71.0063C77.3362 73.2861 79.1444 75.0943 81.4242 75.0943C83.7041 75.0943 85.5123 73.2861 85.5123 71.0063C85.5123 68.7264 83.7041 66.9182 81.4242 66.9182ZM81.4242 73.9151C79.8519 73.9151 78.5154 72.5786 78.5154 71.0063C78.5154 69.4339 79.8519 68.0975 81.4242 68.0975C82.9966 68.0975 84.333 69.4339 84.333 71.0063C84.333 72.5786 83.0752 73.9151 81.4242 73.9151Z" fill="black" fill-opacity="0.8"/>
<path d="M70.3398 38.7735C70.3398 38.459 70.1039 38.1445 69.7108 38.1445H60.2769C59.9624 38.1445 59.6479 38.3804 59.6479 38.7735V49.7798C59.6479 50.0942 59.8838 50.4087 60.2769 50.4087H69.7108C70.0253 50.4087 70.3398 50.1728 70.3398 49.7798V38.7735ZM69.1605 49.2294H60.9058V39.4024H69.1605V49.2294Z" fill="black" fill-opacity="0.8"/>
</svg>
