<svg width="120" height="120" viewBox="0 0 120 120" fill="none" xmlns="http://www.w3.org/2000/svg">
<circle cx="60" cy="60" r="58.5" stroke="black" stroke-opacity="0.1" stroke-width="3"/>
<path d="M70.5467 72.0924C74.9775 72.0924 78.5775 68.4924 78.5775 63.9693C78.5775 62.2155 79.316 60.4616 80.516 59.2616C83.6544 56.1231 83.6544 50.9539 80.516 47.8155C79.2237 46.5231 78.5775 44.8616 78.5775 43.1078C78.5775 38.677 74.9775 34.9847 70.4544 34.9847C68.7006 34.9847 66.9467 34.2462 65.7467 33.0462C62.6083 29.9078 57.439 29.9078 54.3006 33.0462C53.0083 34.3385 51.3467 34.9847 49.5929 34.9847C45.1621 34.9847 41.4698 38.5847 41.4698 43.1078C41.4698 44.8616 40.7313 46.6155 39.5313 47.8155C37.9621 49.3847 37.1313 51.3232 37.1313 53.5385C37.1313 55.6616 37.9621 57.6924 39.5313 59.2616C40.8237 60.5539 41.4698 62.2155 41.4698 63.9693C41.4698 68.4001 45.0698 72.0924 49.5929 72.0924C51.3467 72.0924 53.1006 72.8308 54.3006 74.0308C55.8698 75.6001 57.9006 76.4308 60.0237 76.4308C62.0544 76.4308 64.1775 75.6001 65.7467 74.0308C67.1313 72.7385 68.7929 72.0924 70.5467 72.0924ZM55.4083 73.0155C53.839 71.4462 51.8083 70.6155 49.6852 70.6155C45.9929 70.6155 42.9467 67.5693 42.9467 63.877C42.9467 61.7539 42.116 59.7232 40.5467 58.1539C39.2544 56.8616 38.6083 55.2001 38.6083 53.4462C38.6083 51.6924 39.3467 49.9385 40.5467 48.7385C42.116 47.1693 42.9467 45.1385 42.9467 43.0155C42.9467 39.3232 45.9929 36.277 49.6852 36.277C51.8083 36.277 53.839 35.4462 55.4083 33.877C56.7006 32.7693 58.3621 32.1232 60.116 32.1232C61.8698 32.1232 63.5313 32.7693 64.8237 34.0616C66.3929 35.5385 68.4237 36.3693 70.5467 36.3693C74.239 36.3693 77.1929 39.4155 77.1929 43.1078C77.1929 45.2308 78.0237 47.2616 79.5929 48.8308C82.1775 51.4155 82.1775 55.6616 79.5929 58.3385C78.0237 59.9078 77.1929 61.9385 77.1929 64.0616C77.1929 67.7539 74.1467 70.8001 70.4544 70.8001C68.3314 70.8001 66.3006 71.6308 64.7313 73.2001C62.239 75.6924 57.9929 75.6924 55.4083 73.0155Z" fill="black" fill-opacity="0.8"/>
<path d="M76.4545 53.5384C76.4545 53.1692 76.1776 52.8 75.7161 52.8C75.3468 52.8 74.9776 53.0769 74.9776 53.5384C74.9776 61.7538 68.2391 68.4923 59.9314 68.5846C51.7161 68.5846 44.9776 61.8461 44.8853 53.5384C44.8853 51.2307 45.3468 49.1076 46.3622 47.0769C49.0391 41.9076 54.393 38.5846 60.1161 38.5846C66.393 38.5846 72.1161 42.5538 74.2391 48.5538C74.3314 48.923 74.793 49.1076 75.1622 49.0153C75.3468 48.923 75.4391 48.8307 75.5314 48.6461C75.6238 48.4615 75.6238 48.2769 75.5314 48.0923C73.2237 41.6307 67.0391 37.2 60.1161 37.2C56.9776 37.2 53.9314 38.123 51.2545 39.7846C48.6699 41.4461 46.6391 43.7538 45.3468 46.523C44.3314 48.7384 43.7776 51.1384 43.7776 53.6307C43.7776 62.6769 51.1622 70.0615 60.2084 70.0615C69.2545 70.0615 76.4545 62.5846 76.4545 53.5384Z" fill="black" fill-opacity="0.8"/>
<path d="M71.285 49.9386C71.1927 49.6617 71.0081 49.4771 70.7312 49.4771L63.8081 48.4617L60.762 42.1848C60.4851 41.7232 59.7466 41.7232 59.562 42.1848L56.4235 48.4617L49.5927 49.4771C49.3158 49.4771 49.1312 49.6617 49.0389 49.9386C48.9466 50.2155 49.0389 50.4925 49.2235 50.6771L54.2081 55.5694L52.9158 62.3078C52.9158 62.5848 53.0081 62.8617 53.1927 62.954C53.3774 63.1386 53.6543 63.1386 53.9312 63.0463L60.1158 59.8155L66.3004 63.0463C66.3927 63.1386 66.4851 63.1386 66.5774 63.1386C66.762 63.1386 66.8543 63.1386 66.9466 63.0463C67.1312 62.8617 67.2235 62.5848 67.2235 62.4002L66.0235 55.5694L71.0081 50.6771C71.285 50.4925 71.285 50.2155 71.285 49.9386ZM64.8235 54.7386C64.6389 54.9232 64.5466 55.1079 64.6389 55.3848L65.6543 61.2002L60.3927 58.4309C60.3004 58.3386 60.2081 58.3386 60.1158 58.3386C60.0235 58.3386 59.9312 58.3386 59.8389 58.4309L54.5774 61.2002L55.5927 55.3848C55.5927 55.2002 55.5927 54.9232 55.4081 54.7386L51.162 50.5848L56.9774 49.754C57.162 49.754 57.4389 49.5694 57.5312 49.3848L60.1158 44.1232L62.7004 49.3848C62.7927 49.5694 62.9774 49.754 63.2543 49.754L69.0697 50.5848L64.8235 54.7386Z" fill="black" fill-opacity="0.8"/>
<path d="M55.5005 77.6308C55.1313 77.4462 54.7621 77.6308 54.5775 78.0001L50.4236 86.8616L47.839 79.6616C47.7467 79.477 47.6544 79.3847 47.4698 79.2924C47.2851 79.2001 47.1005 79.2001 46.9159 79.2924L39.7159 81.877L43.6851 73.2924C43.8698 72.9231 43.6851 72.5539 43.3159 72.3693C42.9467 72.1847 42.5775 72.3693 42.3928 72.7385L37.6851 82.8924C37.5928 83.1693 37.5928 83.4462 37.7775 83.6308C37.9621 83.8155 38.239 83.9078 38.5159 83.8155L46.639 80.8616L49.5928 88.9847C49.6851 89.2616 49.9621 89.4462 50.239 89.4462C50.5159 89.4462 50.7928 89.2616 50.8851 89.077L55.6851 78.7385C56.0544 78.1847 55.8698 77.8155 55.5005 77.6308Z" fill="black" fill-opacity="0.8"/>
<path d="M80.9773 83.5386C81.1619 83.3539 81.2542 83.077 81.0696 82.8001L76.6389 73.3847C76.4542 73.0155 76.085 72.9232 75.7158 73.0155C75.3465 73.2001 75.2542 73.5693 75.3465 73.9385L79.0388 81.877L71.8389 79.2924C71.6542 79.2001 71.4696 79.2001 71.285 79.2924C71.1004 79.3847 71.0081 79.477 70.9158 79.6616L68.4235 86.7693L64.5465 78.3693C64.3619 78.0001 63.9927 77.9078 63.6235 78.0001C63.2542 78.1847 63.1619 78.5539 63.2542 78.9232L67.8696 88.8001C67.9619 89.077 68.2389 89.1693 68.5158 89.1693C68.7927 89.1693 69.0696 88.9847 69.1619 88.7078L72.1158 80.5847L80.2388 83.5386C80.5158 83.8155 80.7927 83.7232 80.9773 83.5386Z" fill="black" fill-opacity="0.8"/>
</svg>
