<svg width="120" height="120" viewBox="0 0 120 120" fill="none" xmlns="http://www.w3.org/2000/svg">
<circle cx="60" cy="60" r="58.5" stroke="black" stroke-opacity="0.1" stroke-width="3"/>
<path d="M82.7154 46.8114C69.2385 46.6268 60.5616 34.6268 60.4693 34.5345C60.1923 34.1653 59.6385 34.1653 59.3616 34.5345C59.2693 34.6268 50.5923 46.6268 37.1154 46.8114C36.7462 46.8114 36.4693 47.0883 36.4693 47.4576C36.4693 47.7345 33.8846 75.1499 59.7308 86.4114C59.8231 86.4114 59.9154 86.5037 60.0077 86.5037C60.1 86.5037 60.1923 86.5037 60.2846 86.4114C86.0385 75.2422 83.5462 47.7345 83.5462 47.4576C83.3616 47.0883 83.0846 46.8114 82.7154 46.8114ZM59.9154 84.9345C37.4846 75.0576 37.5769 52.1653 37.7616 48.196C49.7616 47.7345 57.7923 38.7806 59.9154 36.1037C62.0385 38.7806 70.0693 47.7345 82.0693 48.196C82.2539 52.1653 82.3462 75.0576 59.9154 84.9345Z" fill="black" fill-opacity="0.8"/>
<path d="M77.3614 51.796C69.7922 50.3191 63.9768 45.9806 60.3768 42.6575C60.1461 42.4445 59.9153 42.2222 59.9153 42.2222C59.9153 42.2222 59.6845 42.4389 59.4537 42.6575C55.9461 45.9806 50.0384 50.3191 42.4691 51.796C42.255 51.8495 41.8787 51.9299 41.8787 51.9299C41.8787 51.9299 41.9153 52.3793 41.9153 52.5345C42.4691 59.7345 45.423 72.9345 59.5461 80.2268C59.6384 80.3191 59.7307 80.3191 59.823 80.3191C59.9153 80.3191 60.0076 80.3191 60.0999 80.2268C74.3153 72.9345 77.0483 59.7169 77.7307 52.5345C77.7531 52.2985 77.7947 51.8759 77.7947 51.8759C77.7947 51.8759 77.7767 51.8699 77.3614 51.796ZM59.9153 78.8422C46.9922 72.0114 44.0384 60.0114 43.3922 53.0883C50.6845 51.5191 56.3153 47.4575 59.9153 44.1345C63.5153 47.4575 69.2384 51.4268 76.4384 53.0883C75.8845 60.0114 72.8384 72.0114 59.9153 78.8422Z" fill="black" fill-opacity="0.8"/>
<path d="M56.0385 55.2115V58.2577H53.9155H53.177V68.9654H53.9155H66.8385H67.577V58.9961V58.2577H64.7155V55.2115C64.7155 52.8115 62.777 50.7808 60.2847 50.7808C57.7924 50.7808 56.0385 52.8115 56.0385 55.2115ZM66.1924 67.4885H54.6539V59.6423H56.777H64.1616H66.2847V67.4885H66.1924ZM57.5155 55.2115C57.5155 53.55 58.8078 52.1654 60.4693 52.1654C62.1308 52.1654 63.5155 53.55 63.5155 55.2115V58.2577H57.5155V55.2115Z" fill="black" fill-opacity="0.8"/>
<path d="M60.3769 61.95L59.6384 61.95V65.273H60.3769H61.1153V61.95L60.3769 61.95Z" fill="black" fill-opacity="0.8"/>
</svg>
