<svg width="120" height="120" viewBox="0 0 120 120" fill="none" xmlns="http://www.w3.org/2000/svg">
<circle cx="60" cy="60" r="58.5" stroke="black" stroke-opacity="0.1" stroke-width="3"/>
<path d="M81.4156 47.5962L85.2925 43.7193C86.3079 42.7039 86.3079 41.1347 85.2925 40.1193L81.4156 36.2424C81.1387 35.9654 80.8617 35.7808 80.5848 35.6885C80.3079 35.5962 79.9387 35.5039 79.6617 35.5039C79.0156 35.5039 78.3694 35.7808 77.9079 36.2424L74.031 40.1193L39.9694 73.9962C39.8771 74.0885 39.8771 74.1808 39.7848 74.2731L36.4617 84.0577C36.3694 84.3347 36.4617 84.6116 36.6464 84.7962C36.831 84.8885 37.0156 84.9808 37.2002 84.9808C37.2925 84.9808 37.3848 84.9808 37.3848 84.9808L47.1694 81.7501C47.2617 81.7501 47.3541 81.6577 47.4464 81.5654L81.4156 47.5962ZM46.9848 80.0885L44.6771 77.7808L77.631 44.827L79.9387 47.1347L46.9848 80.0885ZM40.7079 75.7501L43.2002 78.2424L45.6925 80.7347L43.2002 81.5654L39.8771 78.2424L40.7079 75.7501ZM78.7387 37.1654C79.2002 36.7039 79.9387 36.7039 80.4002 37.1654L84.2771 41.0424C84.7387 41.5039 84.7387 42.2424 84.2771 42.7039L80.8617 46.1193L78.0925 43.3501L75.3233 40.5808L78.7387 37.1654ZM74.4002 41.5039L76.7079 43.8116L43.6617 76.7654L41.3541 74.4577L74.4002 41.5039ZM39.4156 79.7193L41.7233 82.027L38.2156 83.227L39.4156 79.7193Z" fill="black" fill-opacity="0.8"/>
<path d="M88.6155 54.2422H78.1847C77.8155 54.2422 77.4463 54.5191 77.4463 54.9806C77.4463 55.4422 77.7232 55.7191 78.1847 55.7191H88.6155C88.9847 55.7191 89.354 55.4422 89.354 54.9806C89.354 54.5191 88.9847 54.2422 88.6155 54.2422Z" fill="black" fill-opacity="0.8"/>
<path d="M31.3847 64.8575H45.5078C45.877 64.8575 46.2462 64.5806 46.2462 64.1191C46.2462 63.6575 45.9693 63.3806 45.5078 63.3806H31.3847C31.0155 63.3806 30.6462 63.6575 30.6462 64.1191C30.6462 64.5806 31.0155 64.8575 31.3847 64.8575Z" fill="black" fill-opacity="0.8"/>
<path d="M88.6156 63.4729H68.954C68.5848 63.4729 68.2156 63.7498 68.2156 64.2114C68.2156 64.6729 68.4925 64.9498 68.954 64.9498H88.6156C88.9848 64.9498 89.354 64.6729 89.354 64.2114C89.354 63.7498 88.9848 63.4729 88.6156 63.4729Z" fill="black" fill-opacity="0.8"/>
<path d="M88.6156 72.7036H59.7233C59.3541 72.7036 58.9849 72.9805 58.9849 73.4421C58.9849 73.9036 59.2618 74.1805 59.7233 74.1805H88.6156C88.9849 74.1805 89.3541 73.9036 89.3541 73.4421C89.3541 72.9805 88.9849 72.7036 88.6156 72.7036Z" fill="black" fill-opacity="0.8"/>
<path d="M47.9999 37.1652H73.1999C73.5692 37.1652 73.9384 36.8882 73.9384 36.4267C73.9384 35.9652 73.6615 35.6882 73.1999 35.6882H47.9999C47.6307 35.6882 47.2615 35.9652 47.2615 36.4267C47.2615 36.8882 47.6307 37.1652 47.9999 37.1652Z" fill="black" fill-opacity="0.8"/>
<path d="M41.3847 46.3964H60.7693C61.1385 46.3964 61.5078 46.1194 61.5078 45.6579C61.5078 45.1964 61.2309 44.9194 60.7693 44.9194H41.3847C41.0155 44.9194 40.6462 45.1964 40.6462 45.6579C40.6462 46.1194 41.0155 46.3964 41.3847 46.3964Z" fill="black" fill-opacity="0.8"/>
<path d="M31.3847 55.6268H54.7386C55.1078 55.6268 55.477 55.3499 55.477 54.8884C55.477 54.4268 55.2001 54.1499 54.7386 54.1499H31.3847C31.0155 54.1499 30.6462 54.4268 30.6462 54.8884C30.6462 55.3499 31.0155 55.6268 31.3847 55.6268Z" fill="black" fill-opacity="0.8"/>
<path d="M72.9231 81.9346H50.4924C50.1231 81.9346 49.7539 82.2115 49.7539 82.673C49.7539 83.1346 50.0308 83.4115 50.4924 83.4115H72.9231C73.2924 83.4115 73.6616 83.1346 73.6616 82.673C73.6616 82.2115 73.2924 81.9346 72.9231 81.9346Z" fill="black" fill-opacity="0.8"/>
</svg>
