<svg width="120" height="120" viewBox="0 0 120 120" fill="none" xmlns="http://www.w3.org/2000/svg">
<circle cx="60" cy="60" r="58.5" stroke="black" stroke-opacity="0.1" stroke-width="3"/>
<path d="M77.5387 63.969H77.0772C77.8156 62.6767 78.2772 61.1075 78.2772 60.0921C78.2772 57.6921 76.2464 55.6613 73.8464 55.6613C71.4464 55.6613 69.4156 57.6921 69.4156 60.0921C69.4156 61.1075 69.8772 62.6767 70.6156 63.969H70.1541C69.231 63.969 68.4002 64.246 67.6618 64.7075C67.0156 63.1383 65.4464 62.1229 63.6925 62.1229H63.231C63.9695 60.8306 64.431 59.2613 64.431 58.246C64.431 55.846 62.4002 53.8152 60.0002 53.8152C57.6002 53.8152 55.5695 55.846 55.5695 58.246C55.5695 59.2613 56.031 60.8306 56.7695 62.1229H56.3079C54.5541 62.1229 52.9849 63.2306 52.3387 64.7075C51.6002 64.246 50.7695 63.969 49.8464 63.969H49.3849C50.1233 62.6767 50.5849 61.1075 50.5849 60.0921C50.5849 57.6921 48.5541 55.6613 46.1541 55.6613C43.7541 55.6613 41.7233 57.6921 41.7233 60.0921C41.7233 61.1075 42.1849 62.6767 42.9233 63.969H42.4618C40.0618 63.969 38.031 65.9075 38.031 68.3998V78.5536C38.031 78.9229 38.3079 79.2921 38.7695 79.2921H41.7233V88.7998C41.7233 89.169 42.0002 89.5383 42.4618 89.5383H49.9387C50.3079 89.5383 50.6772 89.2613 50.6772 88.7998V70.3383C50.6772 69.969 50.4002 69.5998 49.9387 69.5998C49.4772 69.5998 49.2002 69.8767 49.2002 70.3383V88.1536H46.8002V76.6152C46.8002 76.246 46.5233 75.8767 46.0618 75.8767C45.6002 75.8767 45.3233 76.1536 45.3233 76.6152V87.969H42.9233V70.1536C42.9233 69.7844 42.6464 69.4152 42.1849 69.4152C41.7233 69.4152 41.4464 69.6921 41.4464 70.1536V77.8152H39.231V68.3075C39.231 66.646 40.6156 65.2613 42.2772 65.2613H43.7541C44.4002 65.9075 45.1387 66.2767 45.9695 66.2767C46.8002 66.2767 47.5387 65.9075 48.1849 65.2613H49.6618C50.4925 65.2613 51.231 65.6306 51.7849 66.1844C51.7849 66.2767 51.7849 66.369 51.7849 66.4613V75.6921C51.7849 76.0613 52.0618 76.4306 52.5233 76.4306H55.4772V87.7844C55.4772 88.1536 55.7541 88.5229 56.2156 88.5229H63.6925C64.0618 88.5229 64.431 88.246 64.431 87.7844V76.4306H67.3849C67.7541 76.4306 68.1233 76.1536 68.1233 75.6921V66.4613C68.1233 66.369 68.1233 66.2767 68.1233 66.1844C68.6772 65.6306 69.4156 65.2613 70.2464 65.2613H71.7233C72.3695 65.9075 73.1079 66.2767 73.9387 66.2767C74.7695 66.2767 75.5079 65.9075 76.1541 65.2613H77.631C79.2925 65.2613 80.6772 66.646 80.6772 68.3075V77.8152H78.4618V70.1536C78.4618 69.7844 78.1849 69.4152 77.7233 69.4152C77.2618 69.4152 76.9849 69.6921 76.9849 70.1536V87.969H74.5849V76.6152C74.5849 76.246 74.3079 75.8767 73.8464 75.8767C73.3849 75.8767 73.1079 76.1536 73.1079 76.6152V87.969H70.7079V70.1536C70.7079 69.7844 70.431 69.4152 69.9695 69.4152C69.5079 69.4152 69.231 69.6921 69.231 70.1536V88.6152C69.231 88.9844 69.5079 89.3536 69.9695 89.3536H77.4464C77.8156 89.3536 78.1849 89.0767 78.1849 88.6152V79.1998H81.1387C81.5079 79.1998 81.8772 78.9229 81.8772 78.4613V68.3075C81.9695 65.9075 79.9387 63.969 77.5387 63.969ZM46.1541 57.046C47.8156 57.046 49.2002 58.4306 49.2002 60.0921C49.2002 61.2921 48.4618 63.1383 47.5387 64.1536C47.2618 64.4306 46.9849 64.7075 46.6156 64.8921C46.6156 64.8921 46.6156 64.8921 46.5233 64.8921C46.431 64.8921 46.2464 64.9844 46.1541 64.9844C46.0618 64.9844 45.8772 64.9844 45.7849 64.8921C45.7849 64.8921 45.7849 64.8921 45.6925 64.8921C45.3233 64.7075 44.9541 64.4306 44.7695 64.1536C43.8464 63.1383 43.1079 61.2921 43.1079 60.0921C43.1079 58.3383 44.4925 57.046 46.1541 57.046ZM60.0002 55.1998C61.6618 55.1998 63.0464 56.5844 63.0464 58.246C63.0464 59.446 62.3079 61.2921 61.3849 62.3075C61.1079 62.5844 60.831 62.8613 60.4618 63.046C60.4618 63.046 60.4618 63.046 60.3695 63.046C60.2772 63.046 60.0925 63.1383 60.0002 63.1383C59.9079 63.1383 59.7233 63.1383 59.631 63.046C59.631 63.046 59.631 63.046 59.5387 63.046C59.1695 62.8613 58.8002 62.5844 58.6156 62.3075C57.6925 61.2921 56.9541 59.446 56.9541 58.246C56.9541 56.4921 58.3387 55.1998 60.0002 55.1998ZM66.7387 75.046H64.5233V70.1536C64.5233 69.7844 64.2464 69.4152 63.7848 69.4152C63.3233 69.4152 63.0464 69.6921 63.0464 70.1536V87.046H60.6464V74.769C60.6464 74.3998 60.3695 74.0306 59.9079 74.0306C59.4464 74.0306 59.1695 74.3075 59.1695 74.769V87.046H56.7695V70.1536C56.7695 69.7844 56.4925 69.4152 56.031 69.4152C55.5695 69.4152 55.2925 69.6921 55.2925 70.1536V75.046H53.0772V66.4613C53.0772 64.7998 54.4618 63.4152 56.1233 63.4152H57.6002C58.2464 64.0613 58.9848 64.4306 59.8156 64.4306C60.6464 64.4306 61.3849 64.0613 62.031 63.4152H63.5079C65.1695 63.4152 66.5541 64.7998 66.5541 66.4613V75.046H66.7387ZM73.8464 57.046C75.5079 57.046 76.8925 58.4306 76.8925 60.0921C76.8925 61.2921 76.1541 63.1383 75.231 64.1536C74.9541 64.4306 74.6772 64.7075 74.3079 64.8921C74.3079 64.8921 74.3079 64.8921 74.2156 64.8921C74.1233 64.8921 73.9387 64.9844 73.8464 64.9844C73.7541 64.9844 73.5695 64.9844 73.4772 64.8921C73.4772 64.8921 73.4772 64.8921 73.3849 64.8921C73.0156 64.7075 72.6464 64.4306 72.4618 64.1536C71.5387 63.1383 70.8002 61.2921 70.8002 60.0921C70.8002 58.3383 72.1849 57.046 73.8464 57.046Z" fill="black" fill-opacity="0.8"/>
<path d="M84.2771 64.4306C85.1078 61.846 85.5694 59.0768 85.5694 56.3075C85.5694 42.1845 74.1232 30.646 59.9078 30.646C45.6924 30.646 34.4309 42.1845 34.4309 56.3075C34.4309 59.0768 34.8924 61.7537 35.7232 64.4306C35.8155 64.7075 36.0924 64.8921 36.3694 64.8921C36.4617 64.8921 36.554 64.8921 36.554 64.8921C36.9232 64.7998 37.1078 64.3383 37.0155 64.0614C36.1848 61.5691 35.8155 58.9845 35.8155 56.3998C35.8155 52.3383 36.8309 48.4614 38.5848 45.046H47.4463C46.8001 47.3537 46.4309 49.9383 46.154 52.6152C46.154 52.9845 46.4309 53.3537 46.8001 53.3537C47.1694 53.3537 47.5386 53.0768 47.5386 52.7075C47.7232 49.9383 48.1848 47.3537 48.9232 44.9537H59.354V50.7691C59.354 51.1383 59.6309 51.5075 60.0924 51.5075C60.554 51.5075 60.8309 51.2306 60.8309 50.7691V44.9537H71.2617C71.9078 47.3537 72.3694 49.9383 72.6463 52.7075C72.6463 53.0768 73.0155 53.3537 73.2924 53.3537C73.2924 53.3537 73.2924 53.3537 73.3848 53.3537C73.754 53.3537 74.0309 52.9845 74.0309 52.6152C73.8463 49.9383 73.3848 47.3537 72.7386 45.046H81.6001C83.354 48.4614 84.3694 52.246 84.3694 56.3998C84.3694 58.9845 83.9078 61.5691 83.1694 64.0614C83.0771 64.4306 83.2617 64.7998 83.6309 64.8921C83.8155 64.9845 84.1848 64.7998 84.2771 64.4306ZM39.4155 43.6614C42.7386 38.2152 48.1848 34.246 54.554 32.7691C51.6924 34.9845 49.3848 38.7691 47.9078 43.6614H39.4155ZM49.2924 43.6614C51.4155 37.1075 55.1078 32.6768 59.2617 32.2152V43.6614H49.2924ZM60.7386 43.6614V32.1229C64.8924 32.5845 68.5848 37.0152 70.7078 43.5691H60.7386V43.6614ZM72.1848 43.6614C70.7078 38.7691 68.3078 34.9845 65.5386 32.7691C71.9078 34.246 77.354 38.2152 80.6771 43.6614H72.1848Z" fill="black" fill-opacity="0.8"/>
</svg>
