<svg width="120" height="120" viewBox="0 0 120 120" fill="none" xmlns="http://www.w3.org/2000/svg">
<circle cx="60" cy="60" r="58.5" stroke="black" stroke-opacity="0.1" stroke-width="3"/>
<path d="M67.6269 76.0962C72.0577 76.0962 76.3039 74.8039 79.9962 72.3115L88.5808 76.0962C88.6731 76.0962 88.7654 76.1885 88.8577 76.1885C89.0423 76.1885 89.2269 76.0962 89.3192 76.0038C89.5039 75.8192 89.5962 75.5423 89.5038 75.2654L86.4577 65.3885C88.4885 61.9731 89.5038 58.1885 89.5038 54.2192C89.5038 42.1269 79.6269 32.25 67.5346 32.25C55.4423 32.25 45.75 42.0346 45.75 54.1269C45.75 66.2192 55.5346 76.0962 67.6269 76.0962ZM67.6269 33.6346C78.9808 33.6346 88.2115 42.8654 88.2115 54.2192C88.2115 58.0038 87.1962 61.6962 85.1654 64.9269C85.0731 65.1115 85.0731 65.2962 85.0731 65.4808L87.75 74.1577L80.1808 70.8346C79.9962 70.7423 79.7192 70.7423 79.5346 70.9269C76.0269 73.4192 71.9654 74.7115 67.6269 74.7115C56.2731 74.7115 47.0423 65.4808 47.0423 54.1269C47.0423 42.7731 56.2731 33.6346 67.6269 33.6346Z" fill="black" fill-opacity="0.8"/>
<path d="M57.231 49.7766C54.831 49.7766 52.8926 51.7151 52.8926 54.2074C52.8926 56.6997 54.831 58.6381 57.231 58.6381C59.631 58.6381 61.6618 56.6997 61.6618 54.2074C61.6618 51.7151 59.631 49.7766 57.231 49.7766ZM57.231 57.1612C55.5695 57.1612 54.2772 55.7766 54.2772 54.1151C54.2772 52.4535 55.6618 51.0689 57.231 51.0689C58.8003 51.0689 60.2772 52.4535 60.2772 54.1151C60.2772 55.7766 58.8926 57.1612 57.231 57.1612Z" fill="black" fill-opacity="0.8"/>
<path d="M63.9695 54.1153C63.9695 56.5153 65.9079 58.5461 68.4003 58.5461C70.8003 58.5461 72.7387 56.6076 72.7387 54.1153C72.7387 51.623 70.8003 49.6846 68.4003 49.6846C65.9079 49.7769 63.9695 51.7153 63.9695 54.1153ZM68.3079 51.1615C69.9695 51.1615 71.2618 52.5461 71.2618 54.2076C71.2618 55.8692 69.8772 57.2538 68.3079 57.2538C66.7387 57.2538 65.2618 55.8692 65.2618 54.2076C65.2618 52.5461 66.6464 51.1615 68.3079 51.1615Z" fill="black" fill-opacity="0.8"/>
<path d="M79.3849 58.5461C81.7849 58.5461 83.8156 56.6076 83.8156 54.1153C83.8156 51.623 81.8772 49.6846 79.3849 49.6846C76.8926 49.6846 74.9541 51.623 74.9541 54.1153C74.9541 56.6076 76.9849 58.5461 79.3849 58.5461ZM79.3849 51.1615C81.0464 51.1615 82.431 52.5461 82.431 54.2076C82.431 55.8692 81.0464 57.2538 79.3849 57.2538C77.7233 57.2538 76.3387 55.8692 76.3387 54.2076C76.3387 52.5461 77.7233 51.1615 79.3849 51.1615Z" fill="black" fill-opacity="0.8"/>
<path d="M66.4616 78.4847C62.677 81.9924 57.7847 83.8385 52.6155 83.8385C48.3693 83.8385 44.2155 82.5462 40.7078 80.0539C40.5232 79.8693 40.2463 79.8693 40.0616 79.9616L32.4924 83.2847L35.1693 74.6077C35.2616 74.4231 35.1693 74.2385 35.077 74.0539C33.1386 70.8231 32.0309 67.1308 32.0309 63.3462C32.0309 54.8539 37.1078 47.377 44.954 44.2385C45.3232 44.0539 45.5078 43.6847 45.3232 43.3154C45.1386 42.9462 44.7693 42.7616 44.4001 42.9462C36.0001 46.2693 30.554 54.3 30.554 63.3462C30.554 67.3154 31.5693 71.1924 33.6001 74.5154L30.7386 84.3924C30.6463 84.6693 30.7386 84.9462 30.9232 85.1308C31.0155 85.2231 31.2001 85.3154 31.3847 85.3154C31.477 85.3154 31.5693 85.3154 31.6616 85.2231L40.2463 81.4385C43.9386 83.9308 48.1847 85.2231 52.6155 85.2231C58.0616 85.2231 63.3232 83.1924 67.3847 79.5C67.6616 79.2231 67.6616 78.7616 67.3847 78.4847C67.2001 78.3001 66.7386 78.3001 66.4616 78.4847Z" fill="black" fill-opacity="0.8"/>
</svg>
