<svg width="120" height="120" viewBox="0 0 120 120" fill="none" xmlns="http://www.w3.org/2000/svg">
<circle cx="60" cy="60" r="58.5" stroke="black" stroke-opacity="0.1" stroke-width="3"/>
<g clip-path="url(#clip0)">
<path d="M63.8452 80.9373H35.9681V48.6806L50.3681 34.3729H77.045V50.2498C77.045 50.6191 77.322 50.9883 77.7835 50.9883C78.245 50.9883 78.522 50.7114 78.522 50.2498V33.6345C78.522 33.2652 78.245 32.896 77.7835 32.896H50.0912C49.9066 32.896 49.722 32.9883 49.6297 33.0806L34.7681 47.9422C34.6758 48.0345 34.5835 48.2191 34.5835 48.4037V81.5835C34.5835 81.9527 34.8604 82.322 35.322 82.322H63.8452C64.2144 82.322 64.5837 82.045 64.5837 81.5835C64.5837 81.122 64.2144 80.9373 63.8452 80.9373Z" fill="black" fill-opacity="0.8"/>
<path d="M50.7372 48.4038V37.3268C50.7372 36.9576 50.4602 36.5884 49.9987 36.5884C49.5372 36.5884 49.2602 36.8653 49.2602 37.3268V47.7576H39.0141C38.6449 47.7576 38.2756 48.0345 38.2756 48.4961C38.2756 48.9576 38.5526 49.2345 39.0141 49.2345H50.091C50.4602 49.1422 50.7372 48.773 50.7372 48.4038Z" fill="black" fill-opacity="0.8"/>
<path d="M71.3221 54.9692H40.8605C40.4913 54.9692 40.1221 55.2462 40.1221 55.7077C40.1221 56.1692 40.399 56.4462 40.8605 56.4462H71.3221C71.6913 56.4462 72.0605 56.1692 72.0605 55.7077C72.0605 55.2462 71.6913 54.9692 71.3221 54.9692Z" fill="black" fill-opacity="0.8"/>
<path d="M71.968 61.6845C71.968 61.3153 71.6911 60.946 71.2295 60.946H40.768C40.3988 60.946 40.0295 61.223 40.0295 61.6845C40.0295 62.146 40.3065 62.423 40.768 62.423H71.2295C71.6911 62.423 71.968 62.0537 71.968 61.6845Z" fill="black" fill-opacity="0.8"/>
<path d="M40.8605 66.9231C40.4913 66.9231 40.1221 67.2 40.1221 67.6616C40.1221 68.1231 40.399 68.4 40.8605 68.4H65.7836C66.1528 68.4 66.5221 68.1231 66.5221 67.6616C66.5221 67.2 66.2451 66.9231 65.7836 66.9231H40.8605Z" fill="black" fill-opacity="0.8"/>
<path d="M40.8635 72.8999C40.4942 72.8999 40.125 73.1768 40.125 73.6384C40.125 74.0999 40.4019 74.3768 40.8635 74.3768H63.4399C63.8092 74.3768 64.1784 74.0999 64.1784 73.6384C64.1784 73.1768 63.9015 72.8999 63.4399 72.8999H40.8635Z" fill="black" fill-opacity="0.8"/>
<path d="M71.9679 37.3268C71.9679 36.9576 71.691 36.5884 71.2294 36.5884H60.1525C59.7833 36.5884 59.4141 36.8653 59.4141 37.3268V50.2499C59.4141 50.6192 59.691 50.9884 60.1525 50.9884H71.2294C71.5987 50.9884 71.9679 50.7115 71.9679 50.2499V37.3268ZM70.5833 49.6038H60.891V38.0653H70.5833V49.6038Z" fill="black" fill-opacity="0.8"/>
<path fill-rule="evenodd" clip-rule="evenodd" d="M79.4762 82.1938L79.4939 82.1773C80.3511 81.3772 81.4165 80.9532 82.548 80.9532C83.7018 80.9532 84.6596 80.0163 84.6596 78.8012C84.6596 77.6629 85.1301 76.5399 85.9173 75.7527C86.7429 74.9271 86.7429 73.5532 85.9173 72.7276C85.0795 71.8897 84.6596 70.8026 84.6596 69.6791C84.6596 68.5045 83.7019 67.5271 82.5077 67.5271C81.3693 67.5271 80.2464 67.0566 79.4592 66.2695C78.6336 65.4438 77.2597 65.4438 76.434 66.2695C75.5962 67.1073 74.5091 67.5271 73.3856 67.5271C72.211 67.5271 71.2336 68.4848 71.2336 69.6791C71.2336 70.8174 70.7631 71.9404 69.9759 72.7276C69.5431 73.1604 69.3365 73.6555 69.3365 74.2402C69.3365 74.793 69.5493 75.3261 69.9759 75.7527C70.8138 76.5906 71.2336 77.6777 71.2336 78.8012C71.2336 79.9758 72.1913 80.9532 73.3856 80.9532C74.5239 80.9532 75.6469 81.4237 76.434 82.2109C76.8607 82.6375 77.3938 82.8502 77.9466 82.8502C78.4675 82.8502 79.0385 82.6315 79.4592 82.2109L79.4762 82.1938ZM86.0596 78.8012C86.0596 80.779 84.4855 82.3532 82.548 82.3532C81.7811 82.3532 81.0546 82.6357 80.4491 83.2008C79.763 83.887 78.8346 84.2502 77.9466 84.2502C77.0183 84.2502 76.1303 83.887 75.4441 83.2008C74.9194 82.6761 74.1525 82.3532 73.3856 82.3532C71.4078 82.3532 69.8336 80.7386 69.8336 78.8012C69.8336 78.0343 69.5511 77.3078 68.986 76.7427C68.2998 76.0565 67.9365 75.1685 67.9365 74.2402C67.9365 73.2714 68.2998 72.4238 68.986 71.7376C69.5107 71.2129 69.8336 70.446 69.8336 69.6791C69.8336 67.7013 71.4481 66.1271 73.3856 66.1271C74.1525 66.1271 74.879 65.8446 75.4441 65.2795C76.8164 63.9072 79.0768 63.9072 80.4491 65.2795C80.9739 65.8042 81.7408 66.1271 82.5077 66.1271C84.4855 66.1271 86.0596 67.7417 86.0596 69.6791C86.0596 70.446 86.3422 71.1725 86.9073 71.7376C88.2796 73.11 88.2796 75.3703 86.9073 76.7427C86.3825 77.2674 86.0596 78.0343 86.0596 78.8012Z" fill="black" fill-opacity="0.8"/>
<path fill-rule="evenodd" clip-rule="evenodd" d="M85.8453 82.6204L87.7847 86.7415L88.7463 88.8198L83.6528 86.9638L82.5918 89.8816L81.6809 91.9181L80.7432 89.9554L78.7251 85.6366L79.9935 85.0439L81.6062 88.4952L82.8155 85.1697L86.0515 86.3464L84.5786 83.2165L85.8453 82.6204Z" fill="black" fill-opacity="0.8"/>
<path fill-rule="evenodd" clip-rule="evenodd" d="M76.5138 85.8292L74.425 89.8766L73.3617 91.9047L71.7332 86.734L68.7726 87.6685L66.6024 88.1857L67.5886 86.2469L69.7863 82.0166L71.0287 82.662L69.2724 86.0426L72.6469 84.9775L73.6833 88.2611L75.2698 85.1871L76.5138 85.8292Z" fill="black" fill-opacity="0.8"/>
<path fill-rule="evenodd" clip-rule="evenodd" d="M83.7397 71.3806C83.5498 70.946 83.313 70.5372 83.0355 70.1605C82.4179 69.3222 81.5986 68.6429 80.6442 68.1915C79.2609 67.5373 77.6877 67.406 76.2151 67.8219C74.7426 68.2377 73.4704 69.1726 72.6338 70.4537C71.7971 71.7348 71.4525 73.2755 71.6637 74.7909C71.8748 76.3064 72.6275 77.6942 73.7825 78.6977C74.9376 79.7013 76.4169 80.2527 77.947 80.2502C79.4771 80.2476 80.9546 79.6912 82.1062 78.6838C82.9009 77.9886 83.5033 77.1113 83.8682 76.136C84.0318 75.6987 84.1476 75.2417 84.2116 74.7727C84.2117 74.7717 84.2119 74.7708 84.212 74.7699L82.7826 74.5756C82.6234 75.7464 82.0458 76.82 81.1564 77.598C80.2671 78.3759 79.1262 78.8056 77.9446 78.8076C76.763 78.8096 75.6206 78.3837 74.7287 77.6087C73.8367 76.8338 73.2555 75.7621 73.0924 74.5918C72.9294 73.4215 73.1955 72.2318 73.8416 71.2425C74.4877 70.2532 75.4701 69.5313 76.6072 69.2102C77.7443 68.889 78.9592 68.9904 80.0274 69.4956C81.0955 70.0008 81.9447 70.8756 82.4179 71.9583L83.7397 71.3806Z" fill="black" fill-opacity="0.8"/>
</g>
<defs>
<clipPath id="clip0">
<rect width="60" height="60" fill="white" transform="translate(30 30)"/>
</clipPath>
</defs>
</svg>
